<svg width="24" height="24" viewBox="0 0 24 24" fill="none" xmlns="http://www.w3.org/2000/svg">
    <g clip-path="url(#clip0_612_13299)">
        <mask id="mask0_612_13299" style="mask-type:luminance" maskUnits="userSpaceOnUse" x="0" y="0" width="24" height="24">
            <path d="M24 0H0V24H24V0Z" fill="white"/>
        </mask>
        <g mask="url(#mask0_612_13299)">
            <path fill-rule="evenodd" clip-rule="evenodd" d="M7 4H5C4.44772 4 4 4.44772 4 5V7C4 7.55228 4.44772 8 5 8H7C7.55228 8 8 7.55228 8 7V5C8 4.44772 7.55228 4 7 4ZM7 10H5C4.44772 10 4 10.4477 4 11V13C4 13.5523 4.44772 14 5 14H7C7.55228 14 8 13.5523 8 13V11C8 10.4477 7.55228 10 7 10ZM5 16H7C7.55228 16 8 16.4477 8 17V19C8 19.5523 7.55228 20 7 20H5C4.44772 20 4 19.5523 4 19V17C4 16.4477 4.44772 16 5 16ZM13 4H11C10.4477 4 10 4.44772 10 5V7C10 7.55228 10.4477 8 11 8H13C13.5523 8 14 7.55228 14 7V5C14 4.44772 13.5523 4 13 4ZM17 4H19C19.5523 4 20 4.44772 20 5V7C20 7.55228 19.5523 8 19 8H17C16.4477 8 16 7.55228 16 7V5C16 4.44772 16.4477 4 17 4Z" fill="white"/>
            <path d="M19.43 18.02C19.79 17.43 20 16.74 20 16C20 13.79 18.21 12 16 12C13.79 12 12 13.79 12 16C12 18.21 13.79 20 16 20C16.74 20 17.43 19.78 18.02 19.43L20.59 22L22 20.59L19.43 18.02ZM16 18C14.9 18 14 17.1 14 16C14 14.9 14.9 14 16 14C17.1 14 18 14.9 18 16C18 17.1 17.1 18 16 18Z" fill="white"/>
            <path fill-rule="evenodd" clip-rule="evenodd" d="M11 10H13C13.2891 10 13.5495 10.1227 13.7321 10.3188C12.1413 10.881 10.881 12.1413 10.3188 13.7321C10.1227 13.5495 10 13.2891 10 13V11C10 10.4477 10.4477 10 11 10ZM10.0873 16.5908C10.0312 16.7157 10 16.8542 10 17V19C10 19.5523 10.4477 20 11 20H12.1345C11.0806 19.1689 10.3328 17.9671 10.0873 16.5908ZM14 17.8944C13.3797 17.4597 12.9416 16.7806 12.8287 16H13C13.5523 16 14 16.4477 14 17V17.8944ZM20 12.1345V11C20 10.4477 19.5523 10 19 10H17C16.8542 10 16.7157 10.0312 16.5908 10.0873C17.9671 10.3328 19.1689 11.0806 20 12.1345ZM16 12.8287C16.7806 12.9416 17.4597 13.3797 17.8944 14H17C16.4477 14 16 13.5523 16 13V12.8287ZM13.3514 13.9365C13.621 13.8353 13.8353 13.621 13.9365 13.3514C13.714 13.5167 13.5167 13.714 13.3514 13.9365Z" fill="white"/>
        </g>
    </g>
    <defs>
        <clipPath id="clip0_612_13299">
            <rect width="24" height="24" fill="white"/>
        </clipPath>
    </defs>
</svg>
