<svg width="204" height="68" viewBox="0 0 204 68" fill="none" xmlns="http://www.w3.org/2000/svg">
<path d="M3.69824 56.9202V67.6282H2.1543V55.1936H3.56543L3.69824 56.9202ZM9.74952 59.6096V59.784C9.74952 60.4369 9.67205 61.0429 9.51709 61.6018C9.36214 62.1552 9.13527 62.6366 8.83641 63.0462C8.54312 63.4557 8.18068 63.7739 7.74901 64.0007C7.31738 64.2276 6.82208 64.3411 6.26316 64.3411C5.6932 64.3411 5.18961 64.247 4.75244 64.0589C4.31527 63.8707 3.9445 63.5968 3.64014 63.2371C3.33577 62.8774 3.09229 62.4457 2.90967 61.9421C2.73258 61.4386 2.61084 60.8714 2.54443 60.2405V59.3108C2.61084 58.6467 2.73535 58.0518 2.91797 57.5261C3.10059 57.0004 3.34131 56.5522 3.64014 56.1814C3.9445 55.8051 4.3125 55.5201 4.74414 55.3264C5.17578 55.1272 5.67383 55.0276 6.2383 55.0276C6.80274 55.0276 7.30356 55.1383 7.74072 55.3596C8.17792 55.5754 8.54588 55.8853 8.84474 56.2893C9.14356 56.6933 9.36766 57.1775 9.51709 57.742C9.67205 58.3009 9.74952 58.9234 9.74952 59.6096ZM8.20558 59.784V59.6096C8.20558 59.1614 8.15854 58.7408 8.06444 58.3479C7.97039 57.9495 7.82372 57.6008 7.62452 57.302C7.43081 56.9977 7.1818 56.7597 6.87746 56.5881C6.57307 56.4111 6.21059 56.3225 5.79004 56.3225C5.40267 56.3225 5.0651 56.3889 4.77734 56.5217C4.49512 56.6545 4.25439 56.8344 4.05518 57.0613C3.85596 57.2827 3.69271 57.5372 3.56543 57.825C3.44369 58.1072 3.35238 58.4005 3.29151 58.7048V60.8547C3.40218 61.2421 3.55713 61.6073 3.75635 61.9504C3.95557 62.288 4.22119 62.5619 4.55322 62.7722C4.88526 62.977 5.30306 63.0794 5.80664 63.0794C6.22168 63.0794 6.5786 62.9936 6.87746 62.822C7.1818 62.6449 7.43081 62.4042 7.62452 62.0999C7.82372 61.7955 7.97039 61.4468 8.06444 61.0539C8.15854 60.6555 8.20558 60.2322 8.20558 59.784ZM11.4718 59.784V59.593C11.4718 58.9456 11.5658 58.3452 11.754 57.7918C11.9421 57.2328 12.2133 56.7486 12.5674 56.3391C12.9216 55.9241 13.3505 55.6031 13.8541 55.3762C14.3577 55.1438 14.9221 55.0276 15.5475 55.0276C16.1783 55.0276 16.7455 55.1438 17.2491 55.3762C17.7582 55.6031 18.1899 55.9241 18.544 56.3391C18.9037 56.7486 19.1776 57.2328 19.3658 57.7918C19.5539 58.3452 19.648 58.9456 19.648 59.593V59.784C19.648 60.4314 19.5539 61.0318 19.3658 61.5852C19.1776 62.1386 18.9037 62.6228 18.544 63.0378C18.1899 63.4474 17.761 63.7683 17.2574 64.0007C16.7593 64.2276 16.1949 64.3411 15.564 64.3411C14.9332 64.3411 14.366 64.2276 13.8624 64.0007C13.3588 63.7683 12.9272 63.4474 12.5674 63.0378C12.2133 62.6228 11.9421 62.1386 11.754 61.5852C11.5658 61.0318 11.4718 60.4314 11.4718 59.784ZM13.0074 59.593V59.784C13.0074 60.2322 13.06 60.6555 13.1651 61.0539C13.2703 61.4468 13.428 61.7955 13.6383 62.0999C13.8541 62.4042 14.1225 62.6449 14.4434 62.822C14.7644 62.9936 15.1379 63.0794 15.564 63.0794C15.9846 63.0794 16.3526 62.9936 16.6681 62.822C16.989 62.6449 17.2546 62.4042 17.4649 62.0999C17.6752 61.7955 17.8329 61.4468 17.9381 61.0539C18.0488 60.6555 18.1041 60.2322 18.1041 59.784V59.593C18.1041 59.1503 18.0488 58.7325 17.9381 58.3396C17.8329 57.9412 17.6725 57.5898 17.4566 57.2854C17.2464 56.9755 16.9807 56.732 16.6597 56.5549C16.3443 56.3778 15.9736 56.2893 15.5475 56.2893C15.1269 56.2893 14.7561 56.3778 14.4351 56.5549C14.1197 56.732 13.8541 56.9755 13.6383 57.2854C13.428 57.5898 13.2703 57.9412 13.1651 58.3396C13.06 58.7325 13.0074 59.1503 13.0074 59.593ZM25.0973 59.8835H23.4454V58.9373H24.9728C25.3989 58.9373 25.7365 58.8847 25.9855 58.7795C26.2345 58.6689 26.4116 58.5167 26.5168 58.323C26.6219 58.1293 26.6745 57.9024 26.6745 57.6423C26.6745 57.4099 26.6136 57.1913 26.4918 56.9866C26.3757 56.7763 26.1875 56.6075 25.9274 56.4802C25.6673 56.3474 25.3187 56.281 24.8815 56.281C24.5273 56.281 24.2064 56.3446 23.9186 56.4719C23.6308 56.5937 23.4012 56.7625 23.2296 56.9783C23.0636 57.1886 22.9806 57.4265 22.9806 57.6921H21.445C21.445 57.1443 21.5999 56.6739 21.9098 56.281C22.2253 55.8826 22.643 55.5754 23.1632 55.3596C23.689 55.1438 24.2617 55.0359 24.8815 55.0359C25.4017 55.0359 25.8665 55.094 26.276 55.2102C26.6911 55.3209 27.0425 55.4869 27.3302 55.7082C27.618 55.9241 27.8366 56.1952 27.986 56.5217C28.1409 56.8427 28.2184 57.2162 28.2184 57.6423C28.2184 57.9467 28.1465 58.2344 28.0026 58.5056C27.8587 58.7768 27.6512 59.0175 27.3801 59.2278C27.1089 59.4325 26.7796 59.593 26.3922 59.7092C26.0104 59.8254 25.5788 59.8835 25.0973 59.8835ZM23.4454 59.3025H25.0973C25.6341 59.3025 26.1073 59.3551 26.5168 59.4602C26.9263 59.5598 27.2693 59.7092 27.5461 59.9084C27.8227 60.1077 28.0303 60.3539 28.1686 60.6472C28.3125 60.935 28.3844 61.267 28.3844 61.6433C28.3844 62.0639 28.2986 62.443 28.1271 62.7805C27.9611 63.1126 27.7232 63.3948 27.4132 63.6272C27.1033 63.8596 26.7326 64.0367 26.3009 64.1584C25.8748 64.2802 25.4017 64.3411 24.8815 64.3411C24.3005 64.3411 23.736 64.2414 23.1882 64.0422C22.6403 63.843 22.1893 63.5359 21.8351 63.1208C21.481 62.7003 21.3039 62.1662 21.3039 61.5188H22.8395C22.8395 61.79 22.9253 62.0473 23.0968 62.2908C23.2684 62.5343 23.5063 62.7307 23.8107 62.8801C24.1206 63.0295 24.4775 63.1043 24.8815 63.1043C25.3132 63.1043 25.6728 63.0378 25.9606 62.905C26.2484 62.7722 26.4642 62.5952 26.6081 62.3738C26.7575 62.1524 26.8322 61.9117 26.8322 61.6516C26.8322 61.314 26.7658 61.0429 26.6329 60.8381C26.5001 60.6334 26.2954 60.484 26.0187 60.3899C25.7475 60.2903 25.3989 60.2405 24.9728 60.2405H23.4454V59.3025ZM36.3073 51.2839H37.5691C37.5691 51.8263 37.4861 52.2579 37.32 52.5789C37.154 52.8943 36.9272 53.1378 36.6394 53.3093C36.3572 53.4809 36.0362 53.6109 35.6765 53.6995C35.3223 53.788 34.9543 53.8738 34.5725 53.9568C34.0966 54.0564 33.6539 54.2141 33.2444 54.4299C32.8404 54.6402 32.4918 54.939 32.1985 55.3264C31.9107 55.7138 31.6977 56.2173 31.5593 56.8372C31.4265 57.4569 31.3905 58.2234 31.4514 59.1365V59.9001H30.1897V59.1365C30.1897 58.1127 30.2865 57.219 30.4802 56.4553C30.6794 55.6917 30.9589 55.047 31.3186 54.5212C31.6783 53.9955 32.1044 53.5777 32.5969 53.2678C33.0949 52.9579 33.6428 52.7449 34.2404 52.6287C34.6721 52.5457 35.0429 52.4571 35.3528 52.363C35.6627 52.2634 35.8979 52.1306 36.0583 51.9646C36.2243 51.7986 36.3073 51.5717 36.3073 51.2839ZM34.4895 55.7082C35.0761 55.7082 35.599 55.8106 36.0583 56.0154C36.5176 56.2202 36.9078 56.5051 37.2287 56.8704C37.5497 57.2356 37.7932 57.6672 37.9592 58.1653C38.1308 58.6578 38.2165 59.1946 38.2165 59.7756V59.9582C38.2165 60.5836 38.1252 61.1646 37.9426 61.7014C37.7655 62.2327 37.5027 62.6975 37.154 63.0959C36.8109 63.4888 36.3903 63.796 35.8923 64.0173C35.3998 64.2387 34.8381 64.3494 34.2073 64.3494C33.5764 64.3494 33.0119 64.2387 32.5139 64.0173C32.0214 63.796 31.6008 63.4888 31.2522 63.0959C30.9036 62.6975 30.6379 62.2327 30.4553 61.7014C30.2782 61.1646 30.1897 60.5836 30.1897 59.9582V59.7756C30.1897 59.6373 30.2146 59.5017 30.2644 59.3689C30.3142 59.2361 30.3751 59.1005 30.447 58.9622C30.5245 58.8238 30.5936 58.6772 30.6545 58.5222C30.8593 58.0242 31.1388 57.5621 31.4929 57.136C31.8526 56.7099 32.2815 56.3668 32.7795 56.1067C33.2831 55.8411 33.8531 55.7082 34.4895 55.7082ZM34.1907 56.9617C33.6262 56.9617 33.1614 57.0917 32.7961 57.3518C32.4364 57.6119 32.168 57.9578 31.991 58.3894C31.8139 58.8155 31.7253 59.2776 31.7253 59.7756V59.9582C31.7253 60.3788 31.7751 60.7773 31.8747 61.1536C31.9743 61.5299 32.1238 61.8647 32.323 62.158C32.5277 62.4457 32.7851 62.6726 33.0949 62.8386C33.4104 63.0046 33.7811 63.0876 34.2073 63.0876C34.6334 63.0876 35.0014 63.0046 35.3113 62.8386C35.6211 62.6726 35.8757 62.4457 36.075 62.158C36.2742 61.8647 36.4236 61.5299 36.5232 61.1536C36.6228 60.7773 36.6726 60.3788 36.6726 59.9582V59.7756C36.6726 59.3993 36.6228 59.0424 36.5232 58.7048C36.4236 58.3673 36.2714 58.0684 36.0666 57.8083C35.8674 57.5483 35.6101 57.3435 35.2947 57.1941C34.9847 57.0391 34.6168 56.9617 34.1907 56.9617ZM41.6405 61.7429L45.7825 55.1936H47.3265V64.1751H45.7825V57.6257L41.6405 64.1751H40.1131V55.1936H41.6405V61.7429ZM51.4975 56.9202V67.6282H49.9535V55.1936H51.3645L51.4975 56.9202ZM57.5486 59.6096V59.784C57.5486 60.4369 57.4713 61.0429 57.3162 61.6018C57.1615 62.1552 56.9345 62.6366 56.6357 63.0462C56.3425 63.4557 55.98 63.7739 55.5482 64.0007C55.1168 64.2276 54.6212 64.3411 54.0624 64.3411C53.4924 64.3411 52.9888 64.247 52.5515 64.0589C52.1146 63.8707 51.7436 63.5968 51.4393 63.2371C51.135 62.8774 50.8914 62.4457 50.7087 61.9421C50.5319 61.4386 50.4099 60.8714 50.3436 60.2405V59.3108C50.4099 58.6467 50.5344 58.0518 50.7172 57.5261C50.8999 57.0004 51.1405 56.5522 51.4393 56.1814C51.7436 55.8051 52.1116 55.5201 52.5434 55.3264C52.9748 55.1272 53.4729 55.0276 54.0373 55.0276C54.6021 55.0276 55.1028 55.1383 55.5401 55.3596C55.977 55.5754 56.345 55.8853 56.6438 56.2893C56.9426 56.6933 57.167 57.1775 57.3162 57.742C57.4713 58.3009 57.5486 58.9234 57.5486 59.6096ZM56.0046 59.784V59.6096C56.0046 59.1614 55.9579 58.7408 55.8635 58.3479C55.7696 57.9495 55.623 57.6008 55.4236 57.302C55.2298 56.9977 54.9812 56.7597 54.6765 56.5881C54.3722 56.4111 54.0097 56.3225 53.5893 56.3225C53.2017 56.3225 52.8643 56.3889 52.5766 56.5217C52.2944 56.6545 52.0538 56.8344 51.8545 57.0613C51.6552 57.2827 51.492 57.5372 51.3645 57.825C51.2429 58.1072 51.1515 58.4005 51.0908 58.7048V60.8547C51.2013 61.2421 51.3564 61.6073 51.5557 61.9504C51.7546 62.288 52.0202 62.5619 52.3526 62.7722C52.6845 62.977 53.1023 63.0794 53.6059 63.0794C54.0207 63.0794 54.3777 62.9936 54.6765 62.822C54.9812 62.6449 55.2298 62.4042 55.4236 62.0999C55.623 61.7955 55.7696 61.4468 55.8635 61.0539C55.9579 60.6555 56.0046 60.2322 56.0046 59.784ZM64.9738 62.6394V58.0159C64.9738 57.6617 64.9016 57.3546 64.7579 57.0945C64.6194 56.8288 64.409 56.6241 64.1268 56.4802C63.8446 56.3363 63.4961 56.2644 63.0809 56.2644C62.6937 56.2644 62.3533 56.3308 62.06 56.4636C61.7723 56.5965 61.5453 56.7707 61.3792 56.9866C61.2189 57.2024 61.1386 57.4348 61.1386 57.6839H59.6031C59.6031 57.3629 59.686 57.0447 59.8521 56.7293C60.0179 56.4138 60.2559 56.1288 60.5657 55.8743C60.8815 55.6142 61.2576 55.4094 61.6949 55.26C62.1374 55.1051 62.6299 55.0276 63.1722 55.0276C63.8255 55.0276 64.4009 55.1383 64.899 55.3596C65.4026 55.581 65.7953 55.9158 66.0775 56.364C66.3653 56.8067 66.5093 57.3629 66.5093 58.0325V62.2161C66.5093 62.5149 66.534 62.8331 66.5841 63.1706C66.6394 63.5082 66.7197 63.7988 66.8247 64.0422V64.1751H65.2224C65.1451 63.998 65.0843 63.7628 65.0401 63.4695C64.9959 63.1706 64.9738 62.894 64.9738 62.6394ZM65.2394 58.7297L65.256 59.8089H63.7035C63.2666 59.8089 62.8764 59.8448 62.533 59.9168C62.1901 59.9831 61.9023 60.0855 61.6699 60.2239C61.4374 60.3622 61.2606 60.5365 61.1386 60.7468C61.0171 60.9516 60.9559 61.1923 60.9559 61.469C60.9559 61.7512 61.0196 62.0085 61.1471 62.241C61.2742 62.4734 61.465 62.6588 61.7196 62.7971C61.9797 62.9299 62.298 62.9964 62.6741 62.9964C63.1446 62.9964 63.5598 62.8967 63.9194 62.6975C64.2789 62.4983 64.5641 62.2548 64.7745 61.967C64.9904 61.6793 65.1064 61.3998 65.123 61.1287L65.7788 61.8674C65.7401 62.0999 65.6351 62.3572 65.4634 62.6394C65.2917 62.9216 65.0622 63.1928 64.7745 63.4529C64.4923 63.7074 64.1544 63.9205 63.7617 64.092C63.3745 64.2581 62.9372 64.3411 62.4502 64.3411C61.8416 64.3411 61.3073 64.2221 60.8479 63.9841C60.3944 63.7462 60.04 63.428 59.7854 63.0295C59.5368 62.6256 59.4123 62.1746 59.4123 61.6765C59.4123 61.1951 59.5062 60.7717 59.6945 60.4065C59.8823 60.0357 60.1535 59.7286 60.5079 59.4851C60.8619 59.2361 61.2882 59.0479 61.7863 58.9206C62.284 58.7934 62.8403 58.7297 63.4544 58.7297H65.2394ZM73.6935 59.0618V60.3235H69.0946V59.0618H73.6935ZM72.7802 63.0794C73.1457 63.0794 73.4832 63.0046 73.793 62.8552C74.1028 62.7058 74.3574 62.5011 74.5567 62.241C74.756 61.9753 74.8695 61.6738 74.8971 61.3362H76.3498C76.3222 61.8674 76.142 62.3627 75.81 62.822C75.4836 63.2758 75.0548 63.6438 74.5236 63.926C73.9978 64.2027 73.4169 64.3411 72.7802 64.3411C72.1053 64.3411 71.5158 64.2221 71.0122 63.9841C70.5086 63.7462 70.0908 63.4197 69.7589 63.0046C69.4325 62.5896 69.186 62.1137 69.0202 61.5769C68.8596 61.0346 68.7793 60.4618 68.7793 59.8587V59.51C68.7793 58.9068 68.8596 58.3368 69.0202 57.8001C69.186 57.2578 69.435 56.7791 69.767 56.364C70.0993 55.949 70.5141 55.6225 71.0122 55.3845C71.5158 55.1466 72.1023 55.0276 72.7721 55.0276C73.4747 55.0276 74.0892 55.1715 74.6149 55.4592C75.1407 55.7414 75.5529 56.1288 75.8517 56.6214C76.156 57.1083 76.3222 57.6617 76.3498 58.2815H74.8971C74.8695 57.9107 74.7641 57.5759 74.5818 57.2771C74.4046 56.9783 74.161 56.7403 73.8512 56.5632C73.5469 56.3806 73.1869 56.2893 72.7721 56.2893C72.3017 56.2893 71.906 56.3834 71.5851 56.5715C71.2698 56.7542 71.0177 57.0032 70.8295 57.3186C70.6471 57.6285 70.5141 57.9744 70.4312 58.3562C70.3539 58.7325 70.3152 59.1171 70.3152 59.51V59.8587C70.3152 60.2515 70.3539 60.6389 70.4312 61.0207C70.5141 61.4026 70.6471 61.7485 70.8295 62.0583C71.0177 62.3682 71.2698 62.6173 71.5851 62.8054C71.906 62.988 72.3042 63.0794 72.7802 63.0794ZM83.5752 62.1331L86.6301 55.1936H88.1074L84.1065 64.1751H83.044L79.0596 55.1936H80.5373L83.5752 62.1331ZM80.0889 55.1936V64.1751H78.5534V55.1936H80.0889ZM87.0118 64.1751V55.1936H88.5558V64.1751H87.0118ZM90.7926 59.784V59.593C90.7926 58.9456 90.8869 58.3452 91.0748 57.7918C91.263 57.2328 91.5342 56.7486 91.8882 56.3391C92.2427 55.9241 92.6715 55.6031 93.1751 55.3762C93.6787 55.1438 94.2431 55.0276 94.8683 55.0276C95.4994 55.0276 96.0664 55.1438 96.57 55.3762C97.0792 55.6031 97.511 55.9241 97.865 56.3391C98.2245 56.7486 98.4987 57.2328 98.6869 57.7918C98.8748 58.3452 98.9691 58.9456 98.9691 59.593V59.784C98.9691 60.4314 98.8748 61.0318 98.6869 61.5852C98.4987 62.1386 98.2245 62.6228 97.865 63.0378C97.511 63.4474 97.0817 63.7683 96.5785 64.0007C96.0804 64.2276 95.516 64.3411 94.8849 64.3411C94.2542 64.3411 93.6868 64.2276 93.1832 64.0007C92.6796 63.7683 92.2482 63.4474 91.8882 63.0378C91.5342 62.6228 91.263 62.1386 91.0748 61.5852C90.8869 61.0318 90.7926 60.4314 90.7926 59.784ZM92.3285 59.593V59.784C92.3285 60.2322 92.3808 60.6555 92.4862 61.0539C92.5912 61.4468 92.7488 61.7955 92.9592 62.0999C93.1751 62.4042 93.4433 62.6449 93.7646 62.822C94.0855 62.9936 94.459 63.0794 94.8849 63.0794C95.3056 63.0794 95.6737 62.9936 95.989 62.822C96.3099 62.6449 96.5755 62.4042 96.7859 62.0999C96.9963 61.7955 97.154 61.4468 97.2589 61.0539C97.3699 60.6555 97.4251 60.2322 97.4251 59.784V59.593C97.4251 59.1503 97.3699 58.7325 97.2589 58.3396C97.154 57.9412 96.9933 57.5898 96.7774 57.2854C96.5675 56.9755 96.3018 56.732 95.9805 56.5549C95.6652 56.3778 95.2946 56.2893 94.8683 56.2893C94.448 56.2893 94.077 56.3778 93.7561 56.5549C93.4407 56.732 93.1751 56.9755 92.9592 57.2854C92.7488 57.5898 92.5912 57.9412 92.4862 58.3396C92.3808 58.7325 92.3285 59.1503 92.3285 59.593ZM104.659 63.0794C105.024 63.0794 105.362 63.0046 105.672 62.8552C105.982 62.7058 106.236 62.5011 106.436 62.241C106.634 61.9753 106.748 61.6738 106.776 61.3362H108.237C108.209 61.8674 108.029 62.3627 107.697 62.822C107.371 63.2758 106.942 63.6438 106.41 63.926C105.879 64.2027 105.295 64.3411 104.659 64.3411C103.984 64.3411 103.395 64.2221 102.891 63.9841C102.393 63.7462 101.978 63.4197 101.646 63.0046C101.319 62.5896 101.073 62.1137 100.907 61.5769C100.746 61.0346 100.666 60.4618 100.666 59.8587V59.51C100.666 58.9068 100.746 58.3368 100.907 57.8001C101.073 57.2578 101.319 56.7791 101.646 56.364C101.978 55.949 102.393 55.6225 102.891 55.3845C103.395 55.1466 103.984 55.0276 104.659 55.0276C105.362 55.0276 105.976 55.1715 106.502 55.4592C107.028 55.7414 107.44 56.1288 107.739 56.6214C108.043 57.1083 108.209 57.6617 108.237 58.2815H106.776C106.748 57.9107 106.643 57.5759 106.46 57.2771C106.283 56.9783 106.04 56.7403 105.73 56.5632C105.425 56.3806 105.068 56.2893 104.659 56.2893C104.189 56.2893 103.793 56.3834 103.472 56.5715C103.157 56.7542 102.905 57.0032 102.717 57.3186C102.534 57.6285 102.401 57.9744 102.318 58.3562C102.241 58.7325 102.202 59.1171 102.202 59.51V59.8587C102.202 60.2515 102.241 60.6389 102.318 61.0207C102.395 61.4026 102.526 61.7485 102.708 62.0583C102.897 62.3682 103.148 62.6173 103.464 62.8054C103.785 62.988 104.183 63.0794 104.659 63.0794ZM111.951 59.8919H113.611L111.013 64.1751H109.353L111.951 59.8919ZM113.238 55.1936H116.99V64.1751H115.454V56.4387H113.238C112.8 56.4387 112.444 56.5134 112.167 56.6628C111.89 56.8067 111.688 56.9949 111.561 57.2273C111.434 57.4597 111.37 57.7004 111.37 57.9495C111.37 58.193 111.428 58.4282 111.544 58.655C111.66 58.8764 111.843 59.059 112.092 59.2029C112.341 59.3468 112.662 59.4187 113.055 59.4187H115.869V60.6804H113.055C112.54 60.6804 112.084 60.6113 111.686 60.4729C111.287 60.3345 110.949 60.1436 110.673 59.9001C110.396 59.6511 110.186 59.3606 110.042 59.0286C109.898 58.691 109.826 58.3258 109.826 57.9329C109.826 57.54 109.901 57.1775 110.05 56.8455C110.205 56.5134 110.426 56.2229 110.714 55.9739C111.008 55.7249 111.364 55.5339 111.785 55.4011C112.211 55.2628 112.695 55.1936 113.238 55.1936ZM128.237 60.2239H125.29L125.274 58.9954H127.681C128.156 58.9954 128.552 58.9483 128.868 58.8543C129.189 58.7602 129.429 58.6191 129.59 58.4309C129.75 58.2428 129.831 58.0103 129.831 57.7337C129.831 57.5178 129.784 57.3297 129.689 57.1692C129.601 57.0032 129.465 56.8676 129.283 56.7625C129.1 56.6518 128.873 56.5715 128.602 56.5217C128.337 56.4664 128.024 56.4387 127.664 56.4387H125.697V64.1751H124.161V55.1936H127.664C128.234 55.1936 128.746 55.2434 129.2 55.343C129.659 55.4426 130.049 55.5948 130.37 55.7996C130.697 55.9988 130.946 56.2533 131.117 56.5632C131.289 56.8731 131.375 57.2384 131.375 57.659C131.375 57.9301 131.319 58.1874 131.208 58.4309C131.098 58.6744 130.935 58.8902 130.719 59.0784C130.503 59.2665 130.237 59.4215 129.922 59.5432C129.607 59.6594 129.244 59.7341 128.834 59.7673L128.237 60.2239ZM128.237 64.1751H124.734L125.498 62.9299H128.237C128.663 62.9299 129.017 62.8774 129.299 62.7722C129.581 62.6615 129.792 62.5066 129.93 62.3074C130.074 62.1026 130.146 61.8591 130.146 61.5769C130.146 61.2947 130.074 61.0539 129.93 60.8547C129.792 60.65 129.581 60.495 129.299 60.3899C129.017 60.2792 128.663 60.2239 128.237 60.2239H125.904L125.921 58.9954H128.834L129.391 59.4602C129.883 59.4989 130.301 59.6207 130.644 59.8254C130.987 60.0302 131.247 60.2903 131.424 60.6057C131.601 60.9156 131.69 61.2532 131.69 61.6184C131.69 62.039 131.61 62.4098 131.449 62.7307C131.294 63.0517 131.067 63.3201 130.768 63.5359C130.47 63.7462 130.107 63.9067 129.681 64.0173C129.255 64.1225 128.774 64.1751 128.237 64.1751ZM139.924 55.1936H141.46L141.327 58.5554C141.294 59.4077 141.197 60.1436 141.036 60.7634C140.876 61.3832 140.671 61.9117 140.422 62.3489C140.173 62.7805 139.894 63.143 139.584 63.4363C139.28 63.7296 138.964 63.9758 138.637 64.1751H137.874L137.915 62.9216L138.231 62.9133C138.413 62.6975 138.59 62.4762 138.762 62.2493C138.934 62.0169 139.091 61.7429 139.235 61.4275C139.379 61.1065 139.498 60.7164 139.592 60.2571C139.692 59.7922 139.755 59.225 139.783 58.5554L139.924 55.1936ZM140.306 55.1936H145.71V64.1751H144.174V56.613H140.306V55.1936ZM137.525 62.9133H146.864V66.823H145.328V64.1751H139.061V66.823H137.517L137.525 62.9133ZM152.462 64.3411C151.837 64.3411 151.27 64.2359 150.76 64.0256C150.257 63.8098 149.823 63.5082 149.457 63.1208C149.097 62.7335 148.821 62.2742 148.627 61.7429C148.434 61.2117 148.337 60.6306 148.337 59.9998V59.6511C148.337 58.9206 148.445 58.2704 148.661 57.7004C148.876 57.1249 149.17 56.6379 149.54 56.2395C149.911 55.8411 150.332 55.5395 150.802 55.3347C151.273 55.13 151.759 55.0276 152.263 55.0276C152.905 55.0276 153.458 55.1383 153.923 55.3596C154.393 55.581 154.778 55.8909 155.077 56.2893C155.376 56.6822 155.597 57.147 155.741 57.6839C155.885 58.2151 155.957 58.7962 155.957 59.427V60.116H149.25V58.8626H154.421V58.7464C154.399 58.3479 154.316 57.9605 154.172 57.5842C154.034 57.2079 153.812 56.898 153.508 56.6545C153.204 56.4111 152.789 56.2893 152.263 56.2893C151.914 56.2893 151.593 56.364 151.3 56.5134C151.007 56.6573 150.755 56.8731 150.545 57.1609C150.334 57.4487 150.171 57.8001 150.055 58.2151C149.939 58.6301 149.881 59.1088 149.881 59.6511V59.9998C149.881 60.4259 149.939 60.8271 150.055 61.2034C150.177 61.5741 150.351 61.9006 150.578 62.1829C150.81 62.4651 151.09 62.6864 151.416 62.8469C151.748 63.0074 152.125 63.0876 152.545 63.0876C153.087 63.0876 153.547 62.977 153.923 62.7556C154.299 62.5343 154.629 62.2382 154.911 61.8674L155.841 62.6062C155.647 62.8995 155.401 63.1789 155.102 63.4446C154.803 63.7102 154.435 63.926 153.998 64.092C153.566 64.2581 153.054 64.3411 152.462 64.3411ZM161.481 55.1936V64.1751H159.937V55.1936H161.481ZM164.494 55.1936V56.4387H156.982V55.1936H164.494ZM171.338 62.6394V58.0159C171.338 57.6617 171.266 57.3546 171.122 57.0945C170.984 56.8288 170.773 56.6241 170.491 56.4802C170.209 56.3363 169.86 56.2644 169.445 56.2644C169.058 56.2644 168.718 56.3308 168.424 56.4636C168.137 56.5965 167.91 56.7707 167.743 56.9866C167.583 57.2024 167.503 57.4348 167.503 57.6839H165.967C165.967 57.3629 166.05 57.0447 166.216 56.7293C166.382 56.4138 166.62 56.1288 166.93 55.8743C167.245 55.6142 167.622 55.4094 168.059 55.26C168.502 55.1051 168.994 55.0276 169.537 55.0276C170.189 55.0276 170.765 55.1383 171.263 55.3596C171.767 55.581 172.16 55.9158 172.442 56.364C172.73 56.8067 172.874 57.3629 172.874 58.0325V62.2161C172.874 62.5149 172.898 62.8331 172.948 63.1706C173.004 63.5082 173.084 63.7988 173.189 64.0422V64.1751H171.587C171.509 63.998 171.449 63.7628 171.404 63.4695C171.36 63.1706 171.338 62.894 171.338 62.6394ZM171.603 58.7297L171.62 59.8089H170.068C169.63 59.8089 169.24 59.8448 168.897 59.9168C168.554 59.9831 168.267 60.0855 168.034 60.2239C167.802 60.3622 167.624 60.5365 167.503 60.7468C167.381 60.9516 167.32 61.1923 167.32 61.469C167.32 61.7512 167.384 62.0085 167.511 62.241C167.639 62.4734 167.829 62.6588 168.084 62.7971C168.344 62.9299 168.662 62.9964 169.038 62.9964C169.509 62.9964 169.924 62.8967 170.284 62.6975C170.643 62.4983 170.928 62.2548 171.139 61.967C171.354 61.6793 171.471 61.3998 171.487 61.1287L172.143 61.8674C172.104 62.0999 171.999 62.3572 171.828 62.6394C171.656 62.9216 171.427 63.1928 171.139 63.4529C170.856 63.7074 170.519 63.9205 170.126 64.092C169.738 64.2581 169.302 64.3411 168.814 64.3411C168.206 64.3411 167.672 64.2221 167.212 63.9841C166.759 63.7462 166.404 63.428 166.15 63.0295C165.901 62.6256 165.776 62.1746 165.776 61.6765C165.776 61.1951 165.871 60.7717 166.058 60.4065C166.247 60.0357 166.518 59.7286 166.872 59.4851C167.226 59.2361 167.652 59.0479 168.15 58.9206C168.648 58.7934 169.205 58.7297 169.819 58.7297H171.603ZM181.46 55.1936V56.4636H177.119V55.1936H181.46ZM182.814 55.1936V64.1751H181.278V55.1936H182.814ZM176.746 55.1936H178.289L178.057 59.5266C178.018 60.1962 177.955 60.7883 177.866 61.303C177.783 61.8121 177.667 62.2493 177.518 62.6145C177.374 62.9797 177.191 63.2786 176.97 63.511C176.754 63.7379 176.494 63.9067 176.19 64.0173C175.885 64.1225 175.534 64.1751 175.135 64.1751H174.654V62.822L174.986 62.7971C175.224 62.7805 175.426 62.7252 175.592 62.6311C175.763 62.537 175.907 62.3987 176.023 62.2161C176.14 62.0279 176.234 61.7872 176.306 61.4939C176.383 61.2006 176.441 60.852 176.48 60.448C176.524 60.044 176.558 59.5737 176.58 59.0369L176.746 55.1936ZM187.275 59.8919H188.935L186.337 64.1751H184.677L187.275 59.8919ZM188.562 55.1936H192.314V64.1751H190.778V56.4387H188.562C188.124 56.4387 187.767 56.5134 187.491 56.6628C187.214 56.8067 187.012 56.9949 186.885 57.2273C186.758 57.4597 186.694 57.7004 186.694 57.9495C186.694 58.193 186.752 58.4282 186.868 58.655C186.985 58.8764 187.167 59.059 187.416 59.2029C187.665 59.3468 187.986 59.4187 188.379 59.4187H191.193V60.6804H188.379C187.864 60.6804 187.408 60.6113 187.01 60.4729C186.611 60.3345 186.273 60.1436 185.997 59.9001C185.72 59.6511 185.51 59.3606 185.366 59.0286C185.222 58.691 185.15 58.3258 185.15 57.9329C185.15 57.54 185.225 57.1775 185.374 56.8455C185.529 56.5134 185.75 56.2229 186.038 55.9739C186.331 55.7249 186.688 55.5339 187.109 55.4011C187.535 55.2628 188.019 55.1936 188.562 55.1936ZM195.995 55.1936L197.962 58.4641L199.954 55.1936H201.755L198.817 59.6262L201.847 64.1751H200.071L197.995 60.8049L195.92 64.1751H194.136L197.157 59.6262L194.227 55.1936H195.995Z" fill="#1D1D1B"/>
<path d="M157.105 9.5625V24.9091C157.105 27.6061 155.574 30.5073 151.531 30.5073C146.56 30.5073 146.331 26.8189 146.331 25.2346V9.5625H136V28.5635C136 33.5494 139.606 38.9095 147.517 38.9095H147.639C152.26 38.9095 155.341 36.8782 157.197 35.1239V38.3069H167.432V9.5625H157.105Z" fill="#1D1D1B"/>
<path d="M202.294 34.7329V19.0656V19.0704C201.954 13.3313 197.425 9.13745 188.036 9.13745H186.578C174.026 9.13745 172.15 14.9204 172.15 18.3658V19.0461H182.715V18.4533C182.715 16.5775 185.251 16.1838 187.375 16.1838C192.22 16.1838 192.22 18.876 192.22 19.6536C192.22 20.2465 192.152 20.6206 190.796 20.7518L183.667 21.3593C175.216 22.0785 171.445 24.7367 171.445 29.9705V30.16C171.445 34.4364 174.298 39.0093 182.306 39.0093H183.06C186.734 39.0093 189.815 38.0082 192.108 36.1081V38.4942H197.391C197.415 38.4942 197.434 38.499 197.459 38.499H202.299V38.4942V34.7329H202.294ZM185.635 32.1038C183.133 32.1038 181.864 31.3409 181.864 29.8295V29.7421C181.864 28.4883 182.671 27.9051 187.181 27.1325C188.313 26.9527 190.748 26.5396 192.215 26.1411V27.3463C192.22 29.1832 190.432 32.1038 185.635 32.1038Z" fill="#1D1D1B"/>
<path d="M132.6 28.8999H123.25V38.2499H132.6V28.8999Z" fill="#1D1D1B"/>
<path d="M106.8 38.4455H119.309L108.268 22.6616L118.147 9.66707H105.964L99.8219 18.9877H96.2258V2.125H85.8555V38.3872H96.2258V26.9137H99.3165L106.8 38.4455Z" fill="#1D1D1B"/>
<path d="M76.4208 14.0965C75.6191 12.1624 76.3431 9.97559 78.0389 8.87732C76.586 6.75369 74.7736 4.97022 72.723 3.5658C71.6249 5.26179 69.4431 5.98587 67.5091 5.18404C65.5801 4.38707 64.5451 2.33633 64.9678 0.358479C62.5188 -0.108041 59.9726 -0.12748 57.441 0.348759C57.8637 2.33147 56.8287 4.38221 54.8996 5.17918C52.9657 5.98101 50.784 5.25694 49.6809 3.56094C47.5575 5.01882 45.7693 6.83144 44.365 8.88704C46.0609 9.98531 46.78 12.1673 45.9831 14.0917C45.1813 16.0306 43.1259 17.0609 41.1531 16.6381C40.6915 19.0824 40.6769 21.624 41.1482 24.1558C43.1308 23.7331 45.1813 24.7633 45.9831 26.7023C46.7849 28.6364 46.0609 30.8183 44.365 31.9215C45.8228 34.0451 47.6352 35.8334 49.6906 37.2378C50.7839 35.5467 52.9706 34.8226 54.8948 35.6196C56.819 36.4214 57.8492 38.4722 57.4313 40.4452C59.8754 40.9068 62.4265 40.9263 64.9581 40.4549C64.5353 38.4722 65.5655 36.4214 67.5043 35.6196C69.4334 34.8178 71.6151 35.5418 72.7182 37.2427C74.8416 35.7945 76.6346 33.9771 78.0341 31.9166C76.3382 30.8183 75.6239 28.6364 76.4208 26.7071C77.2226 24.7779 79.2732 23.7525 81.246 24.1704C81.7076 21.7261 81.727 19.1748 81.2557 16.6429C79.2829 17.0657 77.2226 16.0355 76.4208 14.0965ZM65.0844 29.7687C59.9094 31.9117 53.9813 29.4528 51.8384 24.2822C49.6955 19.1116 52.1542 13.178 57.3244 11.035C62.4945 8.8919 68.4275 11.3508 70.5704 16.5214C72.7133 21.692 70.2594 27.6256 65.0844 29.7687Z" fill="#0096FF"/>
<path d="M36.4472 2.125V38.4261H26.1108V36.1858C23.3603 37.9693 19.9829 39.0189 16.3285 39.0189C7.10502 39.0189 1.70117 32.3321 1.70117 24.0854C1.70117 15.8387 7.10988 9.15195 16.3285 9.15195C19.9829 9.15195 23.3603 10.2065 26.1108 11.9851V2.125H36.4472ZM18.8895 17.0536C14.545 17.0536 11.673 20.0228 11.673 24.0854C11.673 28.1529 14.545 31.1173 18.8895 31.1173C23.234 31.1173 26.106 28.148 26.106 24.0854C26.106 20.0228 23.234 17.0536 18.8895 17.0536Z" fill="#1D1D1B"/>
</svg>
